HIERARCHY
ROOT Hips
{
	OFFSET 0.00000 0.00000 0.00000
	CHANNELS 6 Xposition Yposition Zposition Zrotation Yrotation Xrotation 
	JOINT LHipJoint
	{
		OFFSET 0 0 0
		CHANNELS 3 Zrotation Yrotation Xrotation
		JOINT LeftHip
		{
			OFFSET 1.36337 -1.57426 1.11036
			CHANNELS 3 Zrotation Yrotation Xrotation
			JOINT LeftKnee
			{
				OFFSET 2.38468 -6.55187 0.00000
				CHANNELS 3 Zrotation Yrotation Xrotation
				JOINT LeftAnkle
				{
					OFFSET 2.37166 -6.51609 0.00000
					CHANNELS 3 Zrotation Yrotation Xrotation
					JOINT LeftToe
					{
						OFFSET 0.29078 -0.79891 2.01393
						CHANNELS 3 Zrotation Yrotation Xrotation
						End Site
						{
							OFFSET 0.00000 -0.00000 1.07924
						}
					}
				}
			}
		}
	}
	JOINT RHipJoint
	{
		OFFSET 0 0 0
		CHANNELS 3 Zrotation Yrotation Xrotation
		JOINT RightHip
		{
			OFFSET -1.36349 -1.57426 1.11036
			CHANNELS 3 Zrotation Yrotation Xrotation
			JOINT RightKnee
			{
				OFFSET -2.29562 -6.30717 0.00000
				CHANNELS 3 Zrotation Yrotation Xrotation
				JOINT RightAnkle
				{
					OFFSET -2.40985 -6.62100 0.00000
					CHANNELS 3 Zrotation Yrotation Xrotation
					JOINT RightToe
					{
						OFFSET -0.23197 -0.63733 1.92232
						CHANNELS 3 Zrotation Yrotation Xrotation
						End Site
						{
							OFFSET -0.00000 -0.00000 1.01562
						}
					}
				}
			}
		}
	}
	JOINT lowerback
	{
		OFFSET 0 0 0
		CHANNELS 3 Zrotation Yrotation Xrotation
		JOINT Chest
		{
			OFFSET -0.08565 2.03602 -0.24562
			CHANNELS 3 Zrotation Yrotation Xrotation
			JOINT Chest2
			{
				OFFSET -0.00036 2.05693 0.00216
				CHANNELS 3 Zrotation Yrotation Xrotation
				JOINT lowerneck
				{
					OFFSET 0 0 0
					CHANNELS 3 Zrotation Yrotation Xrotation
					JOINT Neck
					{
						OFFSET -0.03664 1.69515 0.31789
						CHANNELS 3 Zrotation Yrotation Xrotation
						JOINT Head
						{
							OFFSET 0.00932 1.70181 -0.46013
							CHANNELS 3 Zrotation Yrotation Xrotation
							End Site
							{
								OFFSET 0.01243 1.77620 -0.19377
							}
						}
					}
				}
				JOINT LeftCollar
				{
					OFFSET 0 0 0
					CHANNELS 3 Zrotation Yrotation Xrotation
					JOINT LeftShoulder
					{
						OFFSET 3.74344 0.81315 -0.36647
CHANNELS 3 Zrotation Xrotation Yrotation
						JOINT LeftElbow
						{
OFFSET 0 -4.971850 -0.000000
CHANNELS 3 Zrotation Xrotation Yrotation
							JOINT LeftWrist
							{
OFFSET 0 -3.358110 0.000000
CHANNELS 3 Zrotation Xrotation Yrotation
								JOINT lhand
								{
									OFFSET 0 0 0
CHANNELS 3 Zrotation Xrotation Yrotation
									JOINT LFingers
									{
OFFSET 0 -0.622780 0.000000
CHANNELS 3 Zrotation Xrotation Yrotation
										End Site
										{
OFFSET 0 -0.502100 0.000000
										}
									}
								}
								JOINT LThumb
								{
OFFSET 0 0.000000 0.000000
CHANNELS 3 Zrotation Xrotation Yrotation
									End Site
									{
OFFSET 0 -0.509760 0.509760
									}
								}
							}
						}
					}
				}
				JOINT RightCollar
				{
					OFFSET 0 0 0
					CHANNELS 3 Zrotation Yrotation Xrotation
					JOINT RightShoulder
					{
						OFFSET -3.75385 0.50666 -0.06525
CHANNELS 3 Zrotation Xrotation Yrotation
						JOINT RightElbow
						{
OFFSET 0 -4.964930 -0.000000
CHANNELS 3 Zrotation Xrotation Yrotation
							JOINT RightWrist
							{
OFFSET 0 -3.349290 0.000000
CHANNELS 3 Zrotation Xrotation Yrotation
								JOINT rhand
								{
									OFFSET 0 0 0
CHANNELS 3 Zrotation Xrotation Yrotation
									JOINT RFingers
									{
OFFSET 0 -0.638040 0.000000
CHANNELS 3 Zrotation Xrotation Yrotation
										End Site
										{
OFFSET 0 -0.514410 0.000000
										}
									}
								}
								JOINT RThumb
								{
OFFSET 0 0.000000 0.000000
CHANNELS 3 Zrotation Xrotation Yrotation
									End Site
									{
OFFSET 0 -0.522260 0.522260
									}
								}
							}
						}
					}
				}
			}
		}
	}
}
MOTION
Frames: 11
Frame Time: 0.008333333333333333
-4.189000 16.718000 -0.091400 148.506000 70.711100 152.782000 0.000000 0.000000 0.000000 -24.958600 -8.830900 1.561300 0.330000 3.692200 10.212200 0.507400 10.139600 -20.725100 0.051500 1.465100 4.029500 0.000000 0.000000 0.000000 3.349400 -0.486500 -0.067400 -1.035600 -6.472500 18.161800 -1.429600 -19.305300 -36.361300 -0.225200 -3.054600 8.430800 -11.163700 2.594300 -5.885000 -1.889500 4.624100 2.976800 4.717700 1.920100 5.770100 17.066000 16.529000 -4.879100 -17.862200 26.906700 20.217600 -4.926400 12.688400 12.342900 0.000000 -0.000000 0.000000 -2.365000 -6.392500 -12.220000 11.200500 -18.594900 1.839300 20.621200 -2.988300 7.233400 0.000000 0.000000 0.000000 -7.125000 0.000000 0.000000 -4.509000 22.265000 -2.471900 0.000000 -0.000000 0.000000 -1.735800 0.424800 19.476800 -16.166400 -25.745800 -3.718000 -10.069400 -4.838700 28.477900 0.000000 0.000000 0.000000 7.125000 0.000000 -0.000000 22.672800 57.358100 -7.107900
-4.187317 16.727508 -0.089128 149.029352 70.951825 153.434087 0.000000 0.000000 0.000000 -24.637353 -8.899054 1.253599 0.350530 3.803518 10.524697 0.500501 10.160383 -20.676299 0.075396 1.766490 4.860890 0.000000 0.000000 0.000000 3.705818 -0.099539 0.021873 -0.996895 -6.353946 17.814890 -1.375245 -19.615609 -36.379727 -0.235129 -3.120566 8.614562 -10.896723 2.579996 -6.103596 -1.891772 4.602981 2.907468 4.579121 1.916650 5.840862 15.852698 16.971241 -7.673061 -14.939168 27.306366 23.696462 -3.376116 12.704134 13.639585 0.000000 0.000000 0.000000 -2.272698 -6.330909 -12.476291 11.239289 -18.654051 1.851753 20.293221 -3.588893 7.810686 0.000000 0.000000 0.000000 -7.125000 0.000000 0.000000 -4.748716 21.670549 -2.669125 0.000000 0.000000 0.000000 -1.664365 0.422612 19.492534 -15.879903 -25.357240 -3.594566 -9.934944 -4.137644 29.351612 0.000000 0.000000 0.000000 7.125000 0.000000 0.000000 23.448994 58.126973 -7.813248
-4.184678 16.737972 -0.086720 149.618254 71.152128 154.167427 0.000000 0.000000 0.000000 -24.318768 -9.006673 1.105743 0.351464 3.808864 10.539559 0.479262 10.346950 -20.650030 0.077101 1.790730 4.927675 0.000000 0.000000 0.000000 4.059300 0.210606 0.001077 -0.980519 -6.303264 17.666949 -1.383163 -19.553995 -36.360326 -0.295175 -3.485122 9.633326 -10.628995 2.558591 -6.328338 -1.900257 4.571756 2.827485 4.432485 1.909172 5.905683 16.367165 16.769051 -7.066244 -15.768285 27.161495 23.121786 -3.832595 12.672072 13.490705 0.000000 0.000000 0.000000 -2.137653 -6.339648 -12.614662 11.203925 -18.600129 1.840444 20.148303 -3.781920 8.127687 0.000000 0.000000 0.000000 -7.125000 0.000000 0.000000 -4.854670 21.342870 -2.764748 0.000000 0.000000 0.000000 -1.567188 0.442957 19.401887 -15.600096 -24.974963 -3.475639 -9.753716 -3.385445 30.221364 0.000000 0.000000 0.000000 7.125000 0.000000 0.000000 24.306578 58.874680 -8.565914
-4.181556 16.742734 -0.085695 149.374214 71.207011 153.979214 0.000000 0.000000 0.000000 -24.367066 -9.075180 1.099961 0.352407 3.813919 10.553645 0.459621 10.552053 -20.660867 0.069824 1.703417 4.686754 0.000000 0.000000 0.000000 4.006783 0.196458 0.009863 -0.965606 -6.256393 17.530206 -1.387773 -19.472252 -36.303675 -0.288284 -3.447405 9.527554 -10.611873 2.544448 -6.358506 -2.023991 4.558471 2.738213 4.290897 1.913706 5.840642 15.766468 16.937085 -7.746896 -14.450438 27.055426 23.737162 -3.255751 12.622827 13.512126 0.000000 0.000000 0.000000 -1.937428 -6.315446 -12.753164 11.147196 -18.513495 1.822410 20.267119 -3.860308 8.187076 0.000000 0.000000 0.000000 -7.125000 0.000000 0.000000 -4.768728 21.272947 -2.723019 0.000000 0.000000 0.000000 -1.397091 0.519751 19.196525 -15.413633 -24.719010 -3.397074 -9.550877 -2.866749 31.098531 0.000000 0.000000 0.000000 7.125000 0.000000 0.000000 25.232132 59.616369 -9.373079
-4.180175 16.745594 -0.085710 148.866297 71.218043 153.484459 0.000000 0.000000 0.000000 -24.531875 -9.056525 1.082000 0.356438 3.835447 10.614139 0.446361 10.684782 -20.663385 0.057892 1.548289 4.258958 0.000000 0.000000 0.000000 3.817377 0.062614 0.030080 -0.949831 -6.206532 17.384779 -1.369018 -19.454111 -36.185634 -0.256549 -3.258777 9.000074 -10.664089 2.544582 -6.283273 -2.183098 4.558522 2.631838 4.144100 1.928780 5.693578 14.695335 17.036847 -8.812072 -12.340756 26.701271 24.839106 -2.365571 12.459270 13.549767 0.000000 0.000000 0.000000 -1.741611 -6.185235 -13.471174 11.195231 -18.586680 1.837831 20.759669 -4.603097 7.892740 0.000000 0.000000 0.000000 -7.125000 0.000000 0.000000 -4.409356 21.557460 -2.490711 0.000000 0.000000 0.000000 -1.194312 0.672102 19.068136 -15.363840 -24.650453 -3.376227 -9.324828 -2.560258 31.986079 0.000000 0.000000 0.000000 7.125000 0.000000 0.000000 26.233297 60.353224 -10.242293
-4.181807 16.750497 -0.085445 148.731519 71.246794 153.391564 0.000000 0.000000 0.000000 -24.555049 -8.958668 0.939963 0.361270 3.861204 10.686602 0.435146 10.708021 -20.572702 0.044530 1.360134 3.740353 0.000000 0.000000 0.000000 3.779430 0.049675 0.027071 -0.936857 -6.165275 17.264629 -1.342728 -19.506579 -36.097538 -0.256535 -3.258747 9.000009 -10.604507 2.548432 -6.243847 -2.313238 4.552334 2.500975 3.967665 1.944146 5.546165 14.210470 16.633867 -8.752538 -11.534958 25.870887 24.893889 -2.236191 12.144306 13.206324 0.000000 0.000000 0.000000 -1.554506 -5.973961 -14.499094 11.276108 -18.710007 1.863707 21.069876 -5.584655 8.135490 0.000000 0.000000 0.000000 -7.125000 0.000000 0.000000 -4.186999 21.286101 -2.400897 0.000000 0.000000 0.000000 -0.976025 0.871792 19.056600 -15.359095 -24.643830 -3.374362 -9.003318 -2.239008 33.105803 0.000000 0.000000 0.000000 7.125000 0.000000 0.000000 27.619581 61.256040 -11.442901
-4.184445 16.754564 -0.083850 148.741417 71.187147 153.469479 0.000000 0.000000 0.000000 -24.562605 -8.856391 0.734742 0.367742 3.895467 10.782773 0.417681 10.645722 -20.327310 0.036721 1.236980 3.401242 0.000000 0.000000 0.000000 3.775882 0.141633 0.049733 -0.926508 -6.132095 17.168085 -1.341625 -19.679840 -36.264783 -0.261018 -3.286487 9.077497 -10.537708 2.524346 -6.264533 -2.474319 4.518371 2.357598 3.756213 1.945746 5.427030 13.706533 16.222935 -8.767414 -10.588205 24.980605 24.964020 -2.054767 11.807051 12.864840 0.000000 0.000000 0.000000 -1.267801 -5.824403 -14.265458 11.045675 -18.358261 1.790328 19.940434 -4.678394 10.830543 0.000000 0.000000 0.000000 -7.125000 0.000000 0.000000 -5.031256 18.501699 -3.186925 0.000000 0.000000 0.000000 -0.705483 1.017963 18.906610 -15.176624 -24.391689 -3.298588 -8.485531 -1.654865 34.794200 0.000000 0.000000 0.000000 7.125000 0.000000 0.000000 29.849179 62.586591 -13.378486
-4.176536 16.752209 -0.086458 148.679154 71.302672 153.321392 0.000000 0.000000 0.000000 -24.557472 -8.871873 0.778915 0.382383 3.971361 10.996068 0.417344 10.739959 -20.423061 0.038825 1.271393 3.495815 0.000000 0.000000 0.000000 3.812062 0.176972 0.225839 -0.909259 -6.076394 17.006199 -1.307295 -19.823047 -36.226246 -0.230055 -3.086402 8.519563 -10.581292 2.436503 -6.334622 -2.408605 4.411849 2.390581 3.845065 1.883987 5.509235 12.673039 15.907241 -9.462833 -9.469055 24.275089 25.377990 -1.631878 11.477726 12.740396 0.000000 0.000000 0.000000 -1.384251 -5.777537 -14.579302 11.074788 -18.402771 1.799499 20.052257 -5.055427 11.420450 0.000000 0.000000 0.000000 -7.125000 0.000000 0.000000 -4.964449 17.870816 -3.213429 0.000000 0.000000 0.000000 -0.868546 0.822674 19.209178 -15.121428 -24.315038 -3.275786 -8.453053 -1.668159 34.491800 0.000000 0.000000 0.000000 7.125000 0.000000 0.000000 29.560326 62.320540 -13.051517
-4.164897 16.750657 -0.089432 148.767521 71.442619 153.312237 0.000000 0.000000 0.000000 -24.479949 -8.868270 0.824113 0.399875 4.059614 11.244462 0.432363 10.750618 -20.588278 0.036614 1.234732 3.394934 0.000000 0.000000 0.000000 3.923265 0.213627 0.453861 -0.889963 -6.013235 16.822816 -1.271138 -19.919602 -36.130748 -0.218834 -3.011428 8.310640 -10.559652 2.361969 -6.416044 -2.358540 4.317905 2.403675 3.882805 1.832246 5.580326 11.876751 15.427900 -10.309322 -8.607807 23.435102 26.028948 -1.324888 11.075206 12.819305 0.000000 0.000000 0.000000 -1.460703 -5.743833 -14.796477 11.077064 -18.406260 1.800188 20.396607 -5.075697 11.149567 0.000000 0.000000 0.000000 -7.125000 0.000000 0.000000 -4.716153 18.128875 -3.025540 0.000000 0.000000 0.000000 -0.925072 0.691000 19.372157 -15.076030 -24.251914 -3.257152 -8.086042 -1.845173 34.733573 0.000000 0.000000 0.000000 7.125000 0.000000 0.000000 30.197195 62.432529 -13.441289
-4.154816 16.751002 -0.093950 148.655836 71.655534 153.118446 0.000000 0.000000 0.000000 -24.420549 -8.803383 0.805216 0.421748 4.167422 11.548307 0.450440 10.740265 -20.761787 0.031863 1.150542 3.163133 0.000000 0.000000 0.000000 3.976773 0.169398 0.628263 -0.865433 -5.931716 16.586546 -1.224627 -19.913270 -35.873605 -0.217975 -3.005640 8.294542 -10.533681 2.311601 -6.476957 -2.322686 4.251451 2.388977 3.903566 1.797819 5.607367 11.057629 14.852093 -11.143130 -7.863927 22.504248 26.638198 -1.069432 10.624494 12.900911 0.000000 0.000000 0.000000 -1.533705 -5.642252 -15.014720 11.119218 -18.470736 1.813514 20.597623 -4.921043 10.500687 0.000000 0.000000 0.000000 -7.125000 0.000000 0.000000 -4.560874 18.799693 -2.857339 0.000000 0.000000 0.000000 -0.949911 0.607278 19.541129 -15.048715 -24.213904 -3.245903 -7.516019 -2.236567 35.549913 0.000000 0.000000 0.000000 7.125000 0.000000 0.000000 31.698782 62.968647 -14.592194
-4.147799 16.753380 -0.099622 148.473960 71.936080 152.886539 0.000000 0.000000 0.000000 -24.345299 -8.694769 0.736496 0.441708 4.264076 11.820880 0.460338 10.777508 -20.901029 0.025067 1.017355 2.796510 0.000000 0.000000 0.000000 4.018883 0.079532 0.700503 -0.840953 -5.849269 16.347841 -1.171026 -19.819259 -35.484666 -0.223978 -3.046331 8.407863 -10.486153 2.261076 -6.522390 -2.262834 4.174573 2.336558 3.934464 1.761743 5.585869 10.121415 14.177745 -11.902626 -7.248934 21.489494 27.108472 -0.864250 10.122802 12.923279 0.000000 0.000000 0.000000 -1.640376 -5.454596 -15.141431 11.190763 -18.580030 1.836269 20.533200 -4.779319 9.967406 0.000000 0.000000 0.000000 -7.125000 0.000000 0.000000 -4.596568 19.368990 -2.820568 0.000000 0.000000 0.000000 -1.023388 0.577502 19.804433 -15.033749 -24.193103 -3.239730 -7.099719 -2.677924 36.317621 0.000000 0.000000 0.000000 7.125000 0.000000 0.000000 33.009505 63.497670 -15.661069
